<svg xmlns="http://www.w3.org/2000/svg" viewBox="0 0 512 512">
  <defs>
    <linearGradient id="g" x1="0" x2="1" y1="0" y2="1">
      <stop offset="0" stop-color="#7c3aed"/>
      <stop offset="1" stop-color="#4f46e5"/>
    </linearGradient>
  </defs>
  <rect width="512" height="512" rx="112" fill="url(#g)"/>
  <path fill="#fff" d="M256 112c-79.4 0-144 64.6-144 144 0 79.4 64.6 144 144 144 79.4 0 144-64.6 144-144 0-79.4-64.6-144-144-144Zm0 64c44.2 0 80 35.8 80 80s-35.8 80-80 80-80-35.8-80-80 35.8-80 80-80Z"/>
  <path fill="#fff" opacity="0.9" d="M256 64c106 0 192 86 192 192s-86 192-192 192S64 362 64 256 150 64 256 64Zm0 32C167.6 96 96 167.6 96 256s71.6 160 160 160 160-71.6 160-160S344.4 96 256 96Z"/>
</svg>
